<?xml version="1.0" standalone="no"?>
<!DOCTYPE svg PUBLIC "-//W3C//DTD SVG 20010904//EN"
 "http://www.w3.org/TR/2001/REC-SVG-20010904/DTD/svg10.dtd">
<svg version="1.0" xmlns="http://www.w3.org/2000/svg"
 width="865.000000pt" height="1280.000000pt" viewBox="0 0 865.000000 1280.000000"
 preserveAspectRatio="xMidYMid meet">
<metadata>
Created by potrace 1.15, written by Peter Selinger 2001-2017
</metadata>
<g transform="translate(0.000000,1280.000000) scale(0.100000,-0.100000)"
fill="#000000" stroke="none">
<path d="M2428 12794 c-31 -6 -46 -41 -77 -189 -79 -368 8 -675 283 -1003 68
-80 262 -272 284 -280 4 -1 85 134 180 300 l173 301 -15 46 c-39 117 -27 197
54 368 l50 107 -51 45 c-162 143 -332 242 -484 281 -79 21 -331 36 -397 24z"/>
<path d="M3460 11982 c-119 -40 -103 -18 -295 -402 -129 -257 -281 -534 -578
-1052 -222 -387 -736 -1281 -1142 -1988 -405 -707 -743 -1295 -751 -1308 l-15
-23 141 3 141 3 1118 1935 c614 1065 1129 1953 1143 1974 67 98 189 223 369
378 l197 168 -14 62 c-29 136 -62 203 -119 238 -48 30 -126 35 -195 12z"/>
<path d="M3626 11399 c-145 -59 -252 -172 -355 -376 l-21 -41 68 -50 c111 -82
329 -219 719 -448 712 -419 1014 -621 1298 -866 300 -259 501 -537 566 -783
30 -112 30 -298 0 -410 -30 -114 -107 -264 -194 -380 -71 -95 -245 -274 -350
-360 l-48 -40 85 -470 c47 -258 86 -473 86 -477 0 -5 178 -8 395 -8 217 0 395
2 395 3 0 2 -18 129 -40 282 -22 153 -40 288 -40 301 0 18 18 35 78 75 198
133 390 315 491 466 103 153 174 332 202 502 13 83 13 284 0 376 -66 452 -369
974 -815 1403 -114 109 -122 114 -264 183 -81 39 -271 127 -422 196 -510 231
-604 275 -830 387 -331 165 -522 275 -791 457 -80 55 -150 99 -155 98 -5 0
-31 -9 -58 -20z"/>
<path d="M6500 7225 c0 -2 109 -132 243 -287 133 -156 248 -291 256 -301 13
-16 -104 -17 -2372 -17 l-2385 0 -217 260 -217 260 -905 0 c-562 0 -903 -4
-901 -9 1 -6 118 -106 258 -223 l255 -214 257 -469 256 -470 393 -3 394 -2
215 215 215 215 2383 -2 2384 -3 -256 -298 c-141 -164 -256 -300 -256 -302 0
-5 267 65 435 114 331 96 659 214 999 358 210 89 716 331 716 343 0 11 -265
160 -455 255 -466 234 -970 413 -1516 540 -85 20 -160 38 -166 40 -7 2 -13 2
-13 0z"/>
<path d="M392 6675 c-47 -42 -63 -83 -64 -158 -1 -134 -2 -132 272 -627 2161
-3905 2401 -4342 2564 -4668 197 -394 181 -373 318 -408 162 -42 244 29 292
254 l14 62 -197 168 c-180 155 -301 279 -369 378 -15 22 -644 1159 -1399 2529
-756 1369 -1377 2493 -1382 2498 -5 5 -26 -7 -49 -28z"/>
<path d="M218 5937 c-119 -94 -217 -175 -217 -179 -1 -5 139 -8 309 -8 l310 0
-90 180 c-50 99 -91 180 -93 180 -1 0 -100 -78 -219 -173z"/>
<path d="M5480 6102 c0 -4 -39 -219 -86 -477 l-85 -470 48 -40 c105 -86 279
-265 350 -360 87 -116 164 -266 194 -380 30 -112 30 -298 0 -410 -65 -246
-266 -524 -566 -783 -284 -245 -586 -447 -1298 -866 -390 -229 -608 -366 -719
-448 l-68 -50 21 -41 c106 -208 214 -321 363 -378 l56 -22 147 100 c271 184
462 294 793 459 226 112 320 156 830 387 151 69 341 157 422 196 142 69 150
74 264 183 446 429 749 951 815 1403 13 92 13 293 0 376 -60 374 -294 701
-693 968 -60 40 -78 57 -78 75 0 13 18 148 40 301 22 153 40 280 40 282 0 1
-178 3 -395 3 -217 0 -395 -3 -395 -8z"/>
<path d="M2813 1385 c-410 -384 -555 -756 -462 -1190 10 -49 26 -111 35 -137
l15 -47 57 -7 c85 -10 277 3 367 26 151 38 322 138 484 281 l51 45 -50 107
c-81 171 -93 251 -54 368 l15 46 -173 301 c-95 166 -175 302 -178 302 -3 0
-51 -43 -107 -95z"/>
</g>
</svg>
